M48
; DRILL file {KiCad (5.1.5)-3} date 5/23/2021 10:41:48 PM
; FORMAT={-:-/ absolute / inch / decimal}
; #@! TF.CreationDate,2021-05-23T22:41:48-06:00
; #@! TF.GenerationSoftware,Kicad,Pcbnew,(5.1.5)-3
; #@! TF.FileFunction,Plated,1,2,PTH
FMAT,2
INCH
T1C0.0400
T2C0.0500
T3C0.1360
T4C0.1500
T5C0.2000
T6C0.2400
%
G90
G05
T1
X2.275Y-2.425
X11.425Y-4.425
X11.425Y-4.875
X6.046Y-2.375
X8.475Y-2.175
X3.8Y-3.925
X3.8Y-4.375
X6.2Y-3.925
X6.2Y-4.375
X2.875Y-2.125
X7.2Y-3.925
X7.2Y-4.375
X5.266Y-2.375
X9.377Y-2.4
X7.4Y-3.925
X7.4Y-4.375
X4.954Y-2.275
X10.325Y-5.525
X10.325Y-5.975
X9.689Y-2.45
X5.422Y-2.425
X5.344Y-1.975
X9.299Y-2.025
X9.221Y-2.175
X9.065Y-2.125
X5.6Y-5.025
X5.6Y-5.475
X6.4Y-5.025
X6.4Y-5.475
X6.2Y-5.025
X6.2Y-5.475
X9.425Y-4.425
X9.425Y-4.875
X6.514Y-2.225
X8.925Y-5.525
X8.925Y-5.975
X2.475Y-2.325
X10.625Y-4.425
X10.625Y-4.875
X2.675Y-2.225
X8.575Y-2.125
X3.4Y-3.925
X3.4Y-4.375
X5.0Y-3.925
X5.0Y-4.375
X5.4Y-3.925
X5.4Y-4.375
X7.65Y-2.175
X6.592Y-1.975
X10.391Y-2.025
X5.6Y-3.925
X5.6Y-4.375
X4.33Y-2.075
X4.876Y-1.975
X10.157Y-2.3
X4.486Y-2.125
X10.725Y-5.525
X10.725Y-5.975
X10.859Y-2.025
X12.275Y-2.4
X10.001Y-2.35
X8.825Y-4.425
X8.825Y-4.875
X4.6Y-5.025
X4.6Y-5.475
X9.625Y-4.425
X9.625Y-4.875
X6.67Y-2.175
X8.725Y-5.525
X8.725Y-5.975
X6.358Y-2.275
X10.425Y-4.425
X10.425Y-4.875
X2.775Y-2.175
X4.2Y-5.025
X4.2Y-5.475
X4.2Y-3.925
X4.2Y-4.375
X4.0Y-5.025
X4.0Y-5.475
X6.28Y-1.975
X4.408Y-1.975
X10.781Y-2.1
X6.748Y-1.975
X5.656Y-1.975
X10.547Y-2.025
X6.124Y-1.975
X4.564Y-1.975
X8.987Y-2.025
X9.611Y-2.025
X10.079Y-2.025
X6.6Y-5.025
X6.6Y-5.475
X6.0Y-5.025
X6.0Y-5.475
X9.225Y-4.425
X9.225Y-4.875
X5.89Y-2.425
X10.225Y-4.425
X10.225Y-4.875
X6.202Y-2.325
X7.0Y-3.925
X7.0Y-4.375
X8.025Y-2.425
X4.6Y-3.925
X4.6Y-4.375
X4.8Y-3.925
X4.8Y-4.375
X7.95Y-2.375
X6.436Y-1.975
X5.032Y-1.975
X9.845Y-2.4
X5.968Y-1.975
X11.325Y-5.525
X11.325Y-5.975
X9.455Y-2.025
X11.125Y-5.525
X11.125Y-5.975
X3.125Y-1.975
X12.175Y-2.35
X10.469Y-2.2
X5.4Y-5.025
X5.4Y-5.475
X7.0Y-5.025
X7.0Y-5.475
X11.025Y-4.425
X11.025Y-4.875
X7.575Y-2.125
X10.825Y-4.425
X10.825Y-4.875
X2.375Y-2.375
X12.375Y-2.45
X5.2Y-3.925
X5.2Y-4.375
X7.875Y-2.325
X4.0Y-3.925
X4.0Y-4.375
X6.6Y-3.925
X6.6Y-4.375
X4.125Y-1.85
X4.642Y-2.175
X4.252Y-1.975
X11.775Y-2.15
X5.734Y-2.475
X5.188Y-1.975
X9.767Y-2.025
X10.925Y-5.525
X10.925Y-5.975
X10.313Y-2.25
X12.075Y-2.3
X8.225Y-2.45
X7.2Y-5.025
X7.2Y-5.475
X7.4Y-5.025
X7.4Y-5.475
X8.625Y-4.425
X8.625Y-4.875
X9.925Y-5.525
X9.925Y-5.975
X7.5Y-2.075
X11.225Y-4.425
X11.225Y-4.875
X2.575Y-2.275
X3.8Y-5.025
X3.8Y-5.475
X4.4Y-5.025
X4.4Y-5.475
X6.4Y-3.925
X6.4Y-4.375
X7.725Y-2.225
X5.11Y-2.325
X10.525Y-5.525
X10.525Y-5.975
X10.703Y-2.025
X4.798Y-2.225
X4.72Y-1.975
X9.143Y-2.025
X10.125Y-5.525
X10.125Y-5.975
X10.625Y-2.15
X10.235Y-2.025
X11.975Y-2.25
X9.025Y-4.425
X9.025Y-4.875
X6.8Y-5.025
X6.8Y-5.475
X5.2Y-5.025
X5.2Y-5.475
X9.825Y-4.425
X9.825Y-4.875
X2.975Y-2.075
X9.325Y-5.525
X9.325Y-5.975
X2.175Y-2.475
X8.525Y-5.525
X8.525Y-5.975
X6.982Y-2.075
X4.4Y-3.925
X4.4Y-4.375
X6.8Y-3.925
X6.8Y-4.375
X8.1Y-2.475
X5.8Y-3.925
X5.8Y-4.375
X7.8Y-2.275
X3.6Y-3.925
X3.6Y-4.375
X6.904Y-1.975
X6.0Y-3.925
X6.0Y-4.375
X5.578Y-2.475
X4.096Y-1.975
X11.675Y-2.1
X5.812Y-1.975
X5.5Y-1.975
X9.923Y-2.025
X8.325Y-2.4
X11.875Y-2.2
X9.533Y-2.45
X5.0Y-5.025
X5.0Y-5.475
X4.8Y-5.025
X4.8Y-5.475
X5.8Y-5.025
X5.8Y-5.475
X10.025Y-4.425
X10.025Y-4.875
X6.826Y-2.125
X9.125Y-5.525
X9.125Y-5.975
T2
X4.025Y-1.8
X11.525Y-3.125
X3.862Y-4.6
X3.862Y-4.8
X4.018Y-4.6
X4.018Y-4.8
X4.174Y-4.6
X4.174Y-4.8
X4.33Y-4.6
X4.33Y-4.8
X4.486Y-4.6
X4.486Y-4.8
X4.642Y-4.6
X4.642Y-4.8
X4.798Y-4.6
X4.798Y-4.8
X4.954Y-4.6
X4.954Y-4.8
X5.11Y-4.6
X5.11Y-4.8
X5.266Y-4.6
X5.266Y-4.8
X5.422Y-4.6
X5.422Y-4.8
X5.578Y-4.6
X5.578Y-4.8
X5.734Y-4.6
X5.734Y-4.8
X5.89Y-4.6
X5.89Y-4.8
X6.046Y-4.6
X6.046Y-4.8
X6.202Y-4.6
X6.202Y-4.8
X6.358Y-4.6
X6.358Y-4.8
X6.514Y-4.6
X6.514Y-4.8
X6.67Y-4.6
X6.67Y-4.8
X6.826Y-4.6
X6.826Y-4.8
X6.982Y-4.6
X6.982Y-4.8
X7.138Y-4.6
X7.138Y-4.8
X3.85Y-1.825
X3.225Y-3.65
X8.908Y-5.1
X8.908Y-5.3
X9.064Y-5.1
X9.064Y-5.3
X9.22Y-5.1
X9.22Y-5.3
X9.376Y-5.1
X9.376Y-5.3
X9.532Y-5.1
X9.532Y-5.3
X9.688Y-5.1
X9.688Y-5.3
X9.844Y-5.1
X9.844Y-5.3
X10.0Y-5.1
X10.0Y-5.3
X10.156Y-5.1
X10.156Y-5.3
X10.312Y-5.1
X10.312Y-5.3
X10.468Y-5.1
X10.468Y-5.3
X10.624Y-5.1
X10.624Y-5.3
X10.78Y-5.1
X10.78Y-5.3
X10.936Y-5.1
X10.936Y-5.3
X11.092Y-5.1
X11.092Y-5.3
X11.075Y-1.825
X7.125Y-1.825
X10.925Y-1.825
T3
X3.486Y-4.7
X7.514Y-4.7
X8.532Y-5.2
X11.468Y-5.2
T4
X13.025Y-4.95
X1.925Y-4.95
T5
X11.475Y-1.925
X8.525Y-1.925
X7.525Y-1.925
X3.475Y-1.925
T6
X13.925Y-2.775
X1.025Y-2.775
X9.65Y-2.775
X5.35Y-2.775
X1.025Y-1.625
X1.025Y-6.025
X13.925Y-6.025
X13.925Y-1.625
T0
M30
